{
  "accessors": [
    {
      "bufferView": 2,
      "componentType": 5126,
      "count": 65532,
      "max": [
        0.041099000722169876,
        -0.003777999896556139,
        0.01706100068986416
      ],
      "min": [
        -0.037987999618053436,
        -0.03209000080823898,
        -0.016303999349474907
      ],
      "type": "VEC3"
    },
    {
      "bufferView": 2,
      "byteOffset": 786384,
      "componentType": 5126,
      "count": 65532,
      "max": [
        0.999413788318634,
        0.9999991059303284,
        0.9999868273735046
      ],
      "min": [
        -0.9996355175971985,
        -0.9999884963035583,
        -0.9999809265136719
      ],
      "type": "VEC3"
    },
    {
      "bufferView": 1,
      "componentType": 5126,
      "count": 65532,
      "max": [
        0.9310399889945984,
        0.9999030232429504
      ],
      "min": [
        0.0001340000017080456,
        5.199999941396527e-05
      ],
      "type": "VEC2"
    },
    {
      "bufferView": 0,
      "componentType": 5125,
      "count": 351297,
      "type": "SCALAR"
    },
    {
      "bufferView": 2,
      "byteOffset": 1572768,
      "componentType": 5126,
      "count": 30546,
      "max": [
        0.041081998497247696,
        -0.003777999896556139,
        0.016951000317931175
      ],
      "min": [
        -0.03779200091958046,
        -0.0320810005068779,
        -0.016225000843405724
      ],
      "type": "VEC3"
    },
    {
      "bufferView": 2,
      "byteOffset": 1939320,
      "componentType": 5126,
      "count": 30546,
      "max": [
        0.9997512698173523,
        0.9999811053276062,
        0.9999421834945679
      ],
      "min": [
        -0.9997795820236206,
        -0.9999744892120361,
        -0.9999288320541382
      ],
      "type": "VEC3"
    },
    {
      "bufferView": 1,
      "byteOffset": 524256,
      "componentType": 5126,
      "count": 30546,
      "max": [
        0.9288679957389832,
        0.9996740221977234
      ],
      "min": [
        3.999999989900971e-06,
        4.999999873689376e-05
      ],
      "type": "VEC2"
    },
    {
      "bufferView": 0,
      "byteOffset": 1405188,
      "componentType": 5125,
      "count": 113703,
      "type": "SCALAR"
    }
  ],
  "asset": {
    "extras": {
      "author": "NASA Astromaterials 3D (https://sketchfab.com/Astromaterials3D)",
      "license": "CC0-1.0 (http://creativecommons.org/publicdomain/zero/1.0/)",
      "source": "https://sketchfab.com/3d-models/antarctic-meteorite-sample-gro-170590-fc4e5ac4616d413191b60848afffa1c3",
      "title": "Antarctic Meteorite Sample GRO 17059,0"
    },
    "generator": "Sketchfab-13.74.0",
    "version": "2.0"
  },
  "bufferViews": [
    {
      "buffer": 0,
      "byteLength": 1860000,
      "name": "floatBufferViews",
      "target": 34963
    },
    {
      "buffer": 0,
      "byteLength": 768624,
      "byteOffset": 1860000,
      "byteStride": 8,
      "name": "floatBufferViews",
      "target": 34962
    },
    {
      "buffer": 0,
      "byteLength": 2305872,
      "byteOffset": 2628624,
      "byteStride": 12,
      "name": "floatBufferViews",
      "target": 34962
    }
  ],
  "buffers": [
    {
      "byteLength": 4934496,
      "uri": "scene.bin"
    }
  ],
  "images": [
    {
      "uri": "textures/GRO17059-0_SFM_Web-Resolution-Model_Coordinate-Unregistered_baseColor.jpeg"
    }
  ],
  "materials": [
    {
      "doubleSided": true,
      "name": "GRO17059-0_SFM_Web-Resolution-Model_Coordinate-Unregistered",
      "pbrMetallicRoughness": {
        "baseColorTexture": {
          "index": 0
        },
        "metallicFactor": 0.0
      }
    }
  ],
  "meshes": [
    {
      "name": "Object_0",
      "primitives": [
        {
          "attributes": {
            "NORMAL": 1,
            "POSITION": 0,
            "TEXCOORD_0": 2
          },
          "indices": 3,
          "material": 0,
          "mode": 4
        }
      ]
    },
    {
      "name": "Object_1",
      "primitives": [
        {
          "attributes": {
            "NORMAL": 5,
            "POSITION": 4,
            "TEXCOORD_0": 6
          },
          "indices": 7,
          "material": 0,
          "mode": 4
        }
      ]
    }
  ],
  "nodes": [
    {
      "children": [
        1
      ],
      "matrix": [
        1.0,
        0.0,
        0.0,
        0.0,
        0.0,
        2.220446049250313e-16,
        -1.0,
        0.0,
        0.0,
        1.0,
        2.220446049250313e-16,
        0.0,
        0.0,
        0.0,
        0.0,
        1.0
      ],
      "name": "Sketchfab_model"
    },
    {
      "children": [
        2,
        3
      ],
      "name": "GRO17059-0_SFM_Web-Resolution-Model_Coordinate-Unregistered.obj.cleaner.materialmerger.gles"
    },
    {
      "mesh": 0,
      "name": "Object_2"
    },
    {
      "mesh": 1,
      "name": "Object_3"
    }
  ],
  "samplers": [
    {
      "magFilter": 9729,
      "minFilter": 9987,
      "wrapS": 10497,
      "wrapT": 10497
    }
  ],
  "scene": 0,
  "scenes": [
    {
      "name": "Sketchfab_Scene",
      "nodes": [
        0
      ]
    }
  ],
  "textures": [
    {
      "sampler": 0,
      "source": 0
    }
  ]
}
